{
  "accessors": [
    {
      "bufferView": 2,
      "componentType": 5126,
      "count": 2582,
      "max": [
        0.3171153962612152,
        0.559539258480072,
        1.3140546083450317
      ],
      "min": [
        -0.7525862455368042,
        -0.5595391988754272,
        -0.00940774567425251
      ],
      "type": "VEC3"
    },
    {
      "bufferView": 2,
      "byteOffset": 30984,
      "componentType": 5126,
      "count": 2582,
      "max": [
        0.999675452709198,
        1.0,
        0.9999905824661255
      ],
      "min": [
        -0.9998555779457092,
        -1.0,
        -1.000000238418579
      ],
      "type": "VEC3"
    },
    {
      "bufferView": 1,
      "componentType": 5126,
      "count": 2582,
      "max": [
        0.9984697103500366,
        0.9970083236694336
      ],
      "min": [
        0.004192417021840811,
        -0.24170489609241486
      ],
      "type": "VEC2"
    },
    {
      "bufferView": 0,
      "componentType": 5125,
      "count": 14040,
      "type": "SCALAR"
    },
    {
      "bufferView": 3,
      "componentType": 5126,
      "count": 1,
      "max": [
        1.0,
        0.0,
        0.0,
        0.0,
        0.0,
        1.0,
        0.0,
        0.0,
        0.0,
        0.0,
        1.0,
        0.0,
        0.0,
        0.0,
        0.0,
        1.0
      ],
      "min": [
        1.0,
        0.0,
        0.0,
        0.0,
        0.0,
        1.0,
        0.0,
        0.0,
        0.0,
        0.0,
        1.0,
        0.0,
        0.0,
        0.0,
        0.0,
        1.0
      ],
      "type": "MAT4"
    }
  ],
  "asset": {
    "extras": {
      "author": "pocolov (https://sketchfab.com/pocolov)",
      "license": "CC-BY-4.0 (http://creativecommons.org/licenses/by/4.0/)",
      "source": "https://sketchfab.com/3d-models/holy-cow-75be8a5250bd423c9ed366d0a7b7d10b",
      "title": "Holy Cow"
    },
    "generator": "Sketchfab-12.67.0",
    "version": "2.0"
  },
  "bufferViews": [
    {
      "buffer": 0,
      "byteLength": 56160,
      "name": "floatBufferViews",
      "target": 34963
    },
    {
      "buffer": 0,
      "byteLength": 20656,
      "byteOffset": 56160,
      "byteStride": 8,
      "name": "floatBufferViews",
      "target": 34962
    },
    {
      "buffer": 0,
      "byteLength": 61968,
      "byteOffset": 76816,
      "byteStride": 12,
      "name": "floatBufferViews",
      "target": 34962
    },
    {
      "buffer": 0,
      "byteLength": 64,
      "byteOffset": 138784,
      "name": "floatBufferViews"
    }
  ],
  "buffers": [
    {
      "byteLength": 138848,
      "uri": "scene.bin"
    }
  ],
  "images": [
    {
      "uri": "textures/Material__25_baseColor.png"
    }
  ],
  "materials": [
    {
      "doubleSided": true,
      "name": "Material__25",
      "pbrMetallicRoughness": {
        "baseColorTexture": {
          "index": 0
        },
        "metallicFactor": 0.0,
        "roughnessFactor": 0.8641387195121951
      }
    }
  ],
  "meshes": [
    {
      "name": "Object_0",
      "primitives": [
        {
          "attributes": {
            "NORMAL": 1,
            "POSITION": 0,
            "TEXCOORD_0": 2
          },
          "indices": 3,
          "material": 0,
          "mode": 4
        }
      ]
    }
  ],
  "nodes": [
    {
      "children": [
        1
      ],
      "matrix": [
        1.0,
        0.0,
        0.0,
        0.0,
        0.0,
        2.220446049250313e-16,
        -1.0,
        0.0,
        0.0,
        1.0,
        2.220446049250313e-16,
        0.0,
        0.0,
        0.0,
        0.0,
        1.0
      ],
      "name": "Sketchfab_model"
    },
    {
      "children": [
        2,
        5
      ],
      "name": "Collada visual scene group"
    },
    {
      "children": [
        3,
        4
      ],
      "name": "Object_2"
    },
    {
      "name": "_rootJoint"
    },
    {
      "mesh": 0,
      "name": "Object_4"
    },
    {
      "children": [
        6
      ],
      "name": "EnvironmentAmbientLight"
    },
    {
      "name": "EnvironmentAmbientLight"
    }
  ],
  "samplers": [
    {
      "magFilter": 9729,
      "minFilter": 9987,
      "wrapS": 10497,
      "wrapT": 10497
    }
  ],
  "scene": 0,
  "scenes": [
    {
      "name": "Sketchfab_Scene",
      "nodes": [
        0
      ]
    }
  ],
  "skins": [
    {
      "inverseBindMatrices": 4,
      "joints": [
        3
      ],
      "skeleton": 3
    }
  ],
  "textures": [
    {
      "sampler": 0,
      "source": 0
    }
  ]
}
